<?xml version="1.0" encoding="utf-8"?>
<!-- Generator: Adobe Illustrator 24.0.3, SVG Export Plug-In . SVG Version: 6.00 Build 0)  -->
<svg version="1.1" id="Layer_1" xmlns="http://www.w3.org/2000/svg" xmlns:xlink="http://www.w3.org/1999/xlink" x="0px" y="0px"
	 viewBox="0 0 328.79 122.65" style="enable-background:new 0 0 328.79 122.65;" xml:space="preserve">
<style type="text/css">
	.st0{fill:#D9691D;}
	.st1{fill:#40515A;}
	.st2{fill:#BD5816;}
	.st3{fill:#FFFFFF;}
</style>
<g>
	<g>
		<path class="st3" d="M9.66,20.51c0.11,7.83,0.54,16.76,3.5,24.74c3.32,8.94,9.32,15.28,18.33,19.38
			c9.01-4.1,15.01-10.44,18.33-19.38c2.96-7.98,3.38-16.91,3.5-24.74c-6.58-3.94-14.12-6.02-21.83-6.02S16.25,16.57,9.66,20.51z
			 M48.84,30.44l-10.72,7.79l4.09,12.6l-10.72-7.79l-10.72,7.79l4.09-12.6l-10.72-7.79l13.25,0l4.1-12.6l4.1,12.6L48.84,30.44z"/>
		<polygon class="st3" points="28.95,32.58 20.72,32.58 27.37,37.42 24.83,45.24 31.49,40.41 38.15,45.24 35.61,37.42 42.26,32.58 
			34.03,32.58 31.49,24.75 		"/>
		<path class="st3" d="M56.42,16.64l-0.01-0.01l-0.01-0.01c-7.47-4.61-16.08-7.05-24.9-7.05c-8.82,0-17.43,2.44-24.9,7.05
			l-0.03,0.02l-0.05,0.03l-1.8,1.15l0.03,2.14c0.11,8.38,0.5,18.07,3.81,26.99c1.8,4.84,4.35,9.1,7.59,12.65
			c3.64,4,8.28,7.26,13.79,9.7L31.49,70l1.55-0.69c5.51-2.43,10.15-5.7,13.79-9.7c3.24-3.56,5.79-7.81,7.59-12.65
			c3.31-8.92,3.71-18.61,3.81-26.99l0.03-2.19L56.42,16.64z M55.46,19.93c-0.1,8.15-0.48,17.55-3.64,26.06
			c-3.58,9.65-10.09,16.44-19.9,20.78l-0.43,0.19l-0.43-0.19c-9.81-4.34-16.32-11.13-19.9-20.78C8,37.49,7.62,28.08,7.52,19.93
			l-0.01-0.6L8.04,19c7.03-4.34,15.14-6.64,23.45-6.64c8.31,0,16.42,2.3,23.45,6.64l0.53,0.32L55.46,19.93z"/>
	</g>
	<path class="st3" d="M79.96,47.55v-24.2l-5.14-0.79l0.3-2.42l8.29,0.18l8.89-0.18l0.3,2.42l-4.84,0.79v24.74
		c0,7.38,3.21,11.68,9.92,11.68c6.23,0,9.62-4.29,9.62-11.86V23.35l-5.26-0.79l0.3-2.42l7.74,0.18l6.13,0.03v2.31l-3.83,0.69v24.2
		c0,7.92-3.21,13.25-15.24,16.09C84.43,63.64,79.96,57.17,79.96,47.55z"/>
	<path class="st3" d="M124.49,60.19l6.96-0.79V23.35l-8.35,0.06l-2.9,8.11h-2.66V20.14l17.85,0.18l17.6-0.18v11.37h-2.72l-2.84-8.11
		l-8.35-0.06v36.05l6.71,0.79l-0.3,2.42l-10.22-0.18l-10.47,0.18L124.49,60.19z"/>
	<path class="st3" d="M154.57,60.09l5.34-0.82V23.48l-5.34-0.82l0-2.53l9.3,0.19l8.54-0.19l0.31,2.53l-4.9,0.82v15.37h18.79V23.48
		l-5.15-0.82l0.31-2.53l8.8,0.19l8.73-0.19l0.31,2.53l-5.09,0.82v35.79l5.09,0.82l-0.31,2.53l-8.73-0.19l-8.8,0.19l-0.31-2.53
		l5.15-0.82V42.32h-18.79v16.95l4.9,0.82l-0.31,2.53l-8.54-0.19l-8.99,0.19L154.57,60.09z"/>
	<path class="st3" d="M224.25,58.09c-3.23,2.39-7.02,4.08-11.52,5.4c-8.1,0-14.94-5.59-14.94-15.14c0-8.54,4.75-14.14,14.75-16.52
		c8.54,0,11.65,5.34,11.65,11.94v2.95h-18.92c0.32,6.85,3.8,11.37,9.87,11.37c2.72,0,5.82-1.32,7.91-2.64L224.25,58.09z
		 M205.33,43.95l11.26-0.57c0-4.84-0.89-8.04-5.25-8.04C207.99,35.35,205.71,38.42,205.33,43.95z"/>
	<path class="st3" d="M225.93,55.26c0-2.45,0.95-4.27,2.47-6.03l14.18-4.59v-3.39c0-3.71-0.63-5.53-3.48-5.53
		c-1.58,0-3.35,0.5-4.62,1.07l-1.01,5.09h-6.52v-4.9l12.15-5.15c8.35,0,10.82,2.14,10.82,9.86v12.25c0,2.64,0.13,5.64,0.95,6.17
		l1.96,0.04l0.32,2.51l-8.16,0.38l-2.03-4.96l-7.47,5.4C229.92,63.49,225.93,60.35,225.93,55.26z M240.36,57.21l2.22-1.51v-8.42
		l-8.1,3.27c-0.95,1.01-1.33,2.45-1.33,3.83c0,3.14,1.77,4.27,3.48,4.27C238.21,58.66,239.54,57.78,240.36,57.21z"/>
	<path class="st3" d="M254.18,60.1l3.71-0.69V24.12l-4.08,0.13l-0.31-2.58l8.11-1.88l3.52-0.25v39.87l4.27,0.69l-0.31,2.51
		l-7.41-0.19l-7.16,0.19L254.18,60.1z"/>
	<path class="st3" d="M272.99,54.38V36.79h-5.55v-1.07l2.32-2.39h3.36v-4.15l4.84-4.34h2.2v8.86h9.05v3.08h-8.99v17.72
		c0,2.39,1.57,3.83,3.27,3.83c1.51,0,3.93-0.93,5.27-1.6l0.39,2.89l-7.3,3.86C276.01,63.49,272.99,60.48,272.99,54.38z"/>
	<path class="st3" d="M289.65,60.19l4.01-0.78V24l-4.08,0.13l-0.31-2.45l8.11-1.88l3.52-0.25V37.8l9.36-5.97
		c7.67,0,9.49,2.7,9.49,10.56v17.03l4.34,0.69l-0.31,2.51l-7.48-0.19l-6.41,0.19l-0.31-2.51l2.89-0.69V41.75
		c0-2.95-1.38-4.27-3.71-4.27c-1.82,0-4.08,1.32-6.16,2.64l-1.7,1.07v18.22l3.14,0.69l-0.31,2.51l-6.28-0.19l-7.48,0.19
		L289.65,60.19z"/>
	<g>
		<path class="st3" d="M79.22,87.23l2.28-0.25V75.47l-2.85,0.04l-0.87,2.41h-0.74v-3.36l5.45,0.06l5.47-0.06v3.36h-0.74l-0.87-2.41
			l-2.85-0.04v11.51l2.18,0.25l-0.1,0.66l-3.08-0.06l-3.19,0.06L79.22,87.23z"/>
		<path class="st3" d="M88.15,87.23l1.33-0.19V75.58l-1.33,0.04l-0.1-0.65l2.28-0.59l0.95-0.08v6.16l2.77-1.8
			c2.43,0,2.83,0.91,2.83,3.33v5.05l1.42,0.19l-0.1,0.66l-2.18-0.06l-1.8,0.06l-0.1-0.66l0.95-0.19v-5.43
			c0-0.99-0.46-1.42-1.22-1.42c-0.57,0-1.31,0.42-2.01,0.86l-0.57,0.36v5.64l1.04,0.19l-0.09,0.66l-1.81-0.06l-2.18,0.06
			L88.15,87.23z"/>
		<path class="st3" d="M105.86,86.66c-0.91,0.63-2.11,1.16-3.32,1.5c-2.3,0-4.37-1.63-4.37-4.62c0-2.81,1.69-4.31,4.29-4.88
			c2.51,0,3.36,1.58,3.36,3.57v0.8h-5.79c0.08,2.3,1.18,3.71,3.15,3.71c0.76,0,1.67-0.36,2.37-0.8L105.86,86.66z M100.04,82.23
			l3.8-0.15c0-1.46-0.29-2.47-1.75-2.47C100.99,79.61,100.2,80.6,100.04,82.23z"/>
		<path class="st3" d="M111.56,83.18v-7.71l-1.71-0.25l0.09-0.67l2.62,0.06l2.6-0.06l0.1,0.67l-1.61,0.25v8
			c0,2.36,1.01,3.7,3.17,3.7c1.98,0,3.08-1.33,3.08-3.76v-7.94l-1.71-0.25l0.1-0.67l2.43,0.06l2.22-0.06l0.1,0.67l-1.62,0.25v7.75
			c0,2.47-1.01,4.12-4.79,5C112.89,88.22,111.56,86.2,111.56,83.18z"/>
		<path class="st3" d="M122.84,87.23l1.33-0.19v-6.93l-1.33,0.11l-0.1-0.66l2.28-0.59l0.82-0.06l0.09,1.6l2.81-1.84
			c2.43,0,2.83,0.82,2.83,3.1v5.28l1.44,0.19l-0.09,0.66l-2.18-0.06l-1.82,0.06l-0.1-0.66l0.95-0.19v-5.43
			c0-0.99-0.44-1.42-1.25-1.42c-0.67,0-1.33,0.42-1.98,0.86l-0.57,0.38v5.62l1.04,0.19l-0.09,0.66l-1.81-0.06l-2.18,0.06
			L122.84,87.23z"/>
		<path class="st3" d="M133.26,87.23l1.33-0.19v-6.93l-1.33,0.11l-0.1-0.66l2.28-0.59l0.95-0.08v8.15l1.42,0.19l-0.09,0.66
			l-2.19-0.06l-2.18,0.06L133.26,87.23z M134.43,76.74l-0.11-1.06l0.19-0.91l1.37-0.09l0.53,0.09l0.11,1.06l-0.21,0.91l-1.37,0.11
			L134.43,76.74z"/>
		<path class="st3" d="M138.71,79.78l-1.18-0.19l0.09-0.66l2.18,0.06l1.99-0.06l0.1,0.66l-1.25,0.19l2.07,5.57l0.15,1.31l2.3-6.88
			l-0.87-0.19l0.1-0.66l1.67,0.06l1.58-0.06l0.09,0.66l-1.22,0.19l-3.12,7.81l-1.39,0.57L138.71,79.78z"/>
		<path class="st3" d="M155.05,86.66c-0.91,0.63-2.11,1.16-3.32,1.5c-2.3,0-4.37-1.63-4.37-4.62c0-2.81,1.69-4.31,4.29-4.88
			c2.51,0,3.36,1.58,3.36,3.57v0.8h-5.79c0.08,2.3,1.18,3.71,3.15,3.71c0.76,0,1.67-0.36,2.37-0.8L155.05,86.66z M149.23,82.23
			l3.8-0.15c0-1.46-0.29-2.47-1.75-2.47C150.18,79.61,149.39,80.6,149.23,82.23z"/>
		<path class="st3" d="M155.62,87.23l1.33-0.19v-6.93l-1.33,0.11l-0.1-0.66l2.28-0.59l0.76-0.06l0.04,2.51l2.17-2.66h1.52v1.9h-1.41
			c-0.46,0.09-1.22,0.72-1.75,1.35l-0.38,0.46v4.52l1.94,0.19l-0.1,0.72l-2.75-0.06l-2.13,0.06L155.62,87.23z"/>
		<path class="st3" d="M162.84,87.3l-0.36-2.15h1.22l0.65,1.58c0.4,0.27,0.95,0.47,1.56,0.47c1.01,0,1.52-0.65,1.52-1.44
			c0-0.74-0.4-1.06-1.39-1.58l-1.5-0.78c-0.82-0.42-1.6-1.14-1.6-2.2c0-1.33,1.23-2.07,3.44-2.55c1.03,0,2.13,0.46,2.68,0.86v1.9
			h-1.01l-0.44-1.41c-0.19-0.11-0.76-0.42-1.44-0.42c-0.74,0-1.44,0.4-1.44,1.12c0,0.61,0.47,0.99,1.33,1.42l1.46,0.74
			c1.27,0.65,1.79,1.37,1.79,2.45c0,1.71-1.39,2.36-3.57,2.83C164.57,88.16,163.33,87.59,162.84,87.3z"/>
		<path class="st3" d="M169.91,87.23l1.33-0.19v-6.93l-1.33,0.11l-0.09-0.66l2.28-0.59l0.95-0.08v8.15l1.42,0.19l-0.1,0.66
			l-2.18-0.06L170,87.89L169.91,87.23z M171.08,76.74l-0.11-1.06l0.19-0.91l1.37-0.09l0.53,0.09l0.11,1.06l-0.21,0.91l-1.37,0.11
			L171.08,76.74z"/>
		<path class="st3" d="M176.02,85.6v-5.57h-1.84v-0.32l0.67-0.67h1.24v-1.23l1.23-1.24h0.49v2.6h2.87v0.86h-2.85v5.57
			c0,0.72,0.51,1.14,1.01,1.14c0.44,0,0.82-0.11,1.5-0.46l0.32,0.65l-2.22,1.24C176.84,88.16,176.02,87.3,176.02,85.6z"/>
		<path class="st3" d="M182.05,90.44h1.63l1.88-2.87l-0.76,0.23l-3.1-8.02l-1.18-0.19l0.1-0.66l2.18,0.06l1.99-0.06l0.09,0.66
			l-1.25,0.19l2.01,5.57l0.15,1.31l2.26-6.88l-0.87-0.19l0.1-0.66l1.67,0.06l1.58-0.06l0.09,0.66l-1.22,0.19l-2.98,7.77l-2.13,4.79
			h-2.26V90.44z"/>
		<path class="st3" d="M193.29,83.62c0-2.85,1.73-4.46,4.67-4.96c2.53,0,4.24,1.98,4.24,4.56c0,2.83-1.73,4.46-4.67,4.94
			C195,88.16,193.29,86.2,193.29,83.62z M200.3,83.62c0-2.41-1.16-4.03-2.81-4.03c-1.54,0-2.3,1.56-2.3,3.63
			c0,2.17,1.12,4.01,2.81,4.01C199.53,87.23,200.3,85.67,200.3,83.62z"/>
		<path class="st3" d="M202.93,87.23l1.33-0.19v-7.01h-1.67v-0.32l0.57-0.67h1.1v-0.19c0-1.14,0.36-1.88,1.04-2.66l1.6-1.8h2.39
			v1.52h-2.47l-0.36,0.51c-0.27,0.36-0.4,0.91-0.4,2.15v0.57h2.38v0.89h-2.38v7.01l2.18,0.13l-0.09,0.72l-2.94-0.06l-2.18,0.06
			L202.93,87.23z"/>
		<path class="st3" d="M214.71,87.23l2.28-0.25V75.47l-2.85,0.04l-0.87,2.41h-0.74v-3.36l5.45,0.06l5.47-0.06v3.36h-0.74l-0.87-2.41
			l-2.85-0.04v11.51l2.18,0.25l-0.09,0.66l-3.08-0.06l-3.19,0.06L214.71,87.23z"/>
		<path class="st3" d="M230.19,86.66c-0.91,0.63-2.11,1.16-3.32,1.5c-2.3,0-4.37-1.63-4.37-4.62c0-2.81,1.69-4.31,4.29-4.88
			c2.51,0,3.36,1.58,3.36,3.57v0.8h-5.79c0.08,2.3,1.18,3.71,3.15,3.71c0.76,0,1.67-0.36,2.38-0.8L230.19,86.66z M224.38,82.23
			l3.8-0.15c0-1.46-0.28-2.47-1.75-2.47C225.33,79.61,224.53,80.6,224.38,82.23z"/>
		<path class="st3" d="M230.38,87.23l1.33-0.19l2.81-3.46l-2.75-3.78l-1.18-0.19l0.09-0.68l2.18,0.06l1.8-0.06l0.09,0.68l-0.74,0.19
			l1.41,2.11l0.15,0.49l1.8-2.6l-0.93-0.19l0.09-0.68l1.48,0.06l1.96-0.06l0.09,0.68l-1.37,0.19l-2.51,3.04l2.98,4.2l1.18,0.19
			l-0.09,0.66l-2.18-0.06l-1.81,0.06l-0.09-0.66l0.78-0.19l-1.69-2.45l-0.15-0.44l-2.01,2.89l0.89,0.19l-0.09,0.66l-1.48-0.06
			l-1.96,0.06L230.38,87.23z"/>
		<path class="st3" d="M240.66,85.73c0-0.68,0.25-1.18,0.66-1.75l4.27-1.42v-0.95c0-1.14-0.09-1.82-1.12-1.82
			c-0.51,0-1.14,0.17-1.56,0.34l-0.32,1.44h-1.63v-1.39l3.44-1.52c2.39,0,3,0.61,3,3.02v3.72c0,0.82,0.13,1.12,0.32,1.42h0.95
			l0.08,0.67l-2.45,0.47l-0.59-1.46l-2.26,1.65C241.82,88.16,240.66,87.25,240.66,85.73z M244.8,86.34l0.8-0.55v-2.47l-2.75,1.14
			c-0.29,0.29-0.38,0.67-0.38,1.06c0,0.97,0.55,1.31,1.1,1.31C244.1,86.83,244.55,86.51,244.8,86.34z"/>
		<path class="st3" d="M249.36,87.3L249,85.16h1.22l0.65,1.58c0.4,0.27,0.95,0.47,1.56,0.47c1.01,0,1.52-0.65,1.52-1.44
			c0-0.74-0.4-1.06-1.39-1.58l-1.5-0.78c-0.82-0.42-1.6-1.14-1.6-2.2c0-1.33,1.24-2.07,3.44-2.55c1.03,0,2.13,0.46,2.68,0.86v1.9
			h-1.01l-0.44-1.41c-0.19-0.11-0.76-0.42-1.44-0.42c-0.74,0-1.44,0.4-1.44,1.12c0,0.61,0.47,0.99,1.33,1.42l1.46,0.74
			c1.27,0.65,1.79,1.37,1.79,2.45c0,1.71-1.39,2.36-3.57,2.83C251.09,88.16,249.86,87.59,249.36,87.3z"/>
		<path class="st3" d="M77.18,108.23l1.71-0.25V96.47l-1.71-0.25l0.1-0.67l2.62,0.06l2.51-0.06l0.1,0.67l-1.61,0.25v5.03h6.08v-5.03
			l-1.71-0.25l0.1-0.67l2.62,0.06l2.51-0.06l0.09,0.67l-1.61,0.25v11.51l1.61,0.25l-0.09,0.66l-2.51-0.06l-2.62,0.06l-0.1-0.66
			l1.71-0.25v-5.53h-6.08v5.53l1.61,0.25l-0.1,0.66l-2.51-0.06l-2.62,0.06L77.18,108.23z"/>
		<path class="st3" d="M98.17,107.66c-0.91,0.63-2.11,1.16-3.32,1.5c-2.3,0-4.37-1.63-4.37-4.62c0-2.81,1.69-4.31,4.29-4.88
			c2.51,0,3.36,1.58,3.36,3.57v0.8h-5.79c0.08,2.3,1.18,3.71,3.15,3.71c0.76,0,1.67-0.36,2.37-0.8L98.17,107.66z M92.36,103.23
			l3.8-0.15c0-1.46-0.29-2.47-1.75-2.47C93.31,100.61,92.51,101.6,92.36,103.23z"/>
		<path class="st3" d="M98.65,106.73c0-0.68,0.25-1.18,0.67-1.75l4.27-1.42v-0.95c0-1.14-0.1-1.82-1.12-1.82
			c-0.51,0-1.14,0.17-1.56,0.34l-0.32,1.44h-1.63v-1.39l3.44-1.52c2.39,0,3,0.61,3,3.02v3.72c0,0.82,0.13,1.12,0.32,1.42h0.95
			l0.08,0.67l-2.45,0.47l-0.59-1.46l-2.26,1.65C99.81,109.16,98.65,108.25,98.65,106.73z M102.79,107.34l0.8-0.55v-2.47l-2.75,1.14
			c-0.28,0.29-0.38,0.67-0.38,1.06c0,0.97,0.55,1.31,1.1,1.31C102.09,107.83,102.54,107.51,102.79,107.34z"/>
		<path class="st3" d="M106.74,108.23l1.33-0.19V96.6l-1.33,0.04l-0.1-0.67l2.28-0.59l0.95-0.08v12.73l1.42,0.19l-0.09,0.66
			l-2.19-0.06l-2.18,0.06L106.74,108.23z"/>
		<path class="st3" d="M112.77,106.6v-5.57h-1.84v-0.32l0.66-0.67h1.23v-1.23l1.23-1.24h0.49v2.6h2.87v0.86h-2.85v5.57
			c0,0.72,0.51,1.14,1.01,1.14c0.44,0,0.82-0.11,1.5-0.46l0.32,0.65l-2.22,1.24C113.58,109.16,112.77,108.3,112.77,106.6z"/>
		<path class="st3" d="M117.46,108.23l1.33-0.19V96.58l-1.33,0.04l-0.1-0.65l2.28-0.59l0.95-0.08v6.16l2.77-1.8
			c2.43,0,2.83,0.91,2.83,3.33v5.05l1.42,0.19l-0.1,0.66l-2.18-0.06l-1.8,0.06l-0.1-0.66l0.95-0.19v-5.43
			c0-0.99-0.46-1.42-1.22-1.42c-0.57,0-1.31,0.42-2.01,0.86l-0.57,0.36v5.64l1.04,0.19l-0.09,0.66l-1.81-0.06l-2.18,0.06
			L117.46,108.23z"/>
		<path class="st3" d="M131.79,107.93l-0.42-2.56h1.33l0.66,1.62c0.57,0.7,1.61,1.2,2.68,1.2c1.63,0,2.58-1.03,2.58-2.41
			c0-1.29-0.84-2.03-1.98-2.53l-2.3-1.01c-1.37-0.61-2.49-1.46-2.49-3.15c0-2.07,1.9-3.29,4.54-3.84c1.2,0,2.53,0.4,3.48,1.1v2.56
			h-0.95l-0.55-1.73c-0.49-0.51-1.1-0.93-2.24-0.93c-1.5,0-2.39,0.82-2.39,2.09c0,1.04,0.74,1.69,1.79,2.15l2.18,0.95
			c1.5,0.65,2.79,1.6,2.79,3.53c0,1.79-1.22,3.51-4.79,4.25C133.97,109.22,132.79,108.72,131.79,107.93z"/>
		<path class="st3" d="M141.38,104.64c0-2.98,2.18-4.41,4.52-4.98c0.87,0,2.05,0.44,2.62,0.95v1.9h-1.41l-0.44-1.54
			c-0.3-0.23-0.59-0.3-1.1-0.3c-1.29,0-2.28,1.44-2.28,3.51c0,2.03,1.1,3.55,2.96,3.55c0.72,0,1.48-0.36,2.15-0.8l0.3,0.72
			c-0.87,0.63-1.84,1.1-3.1,1.5C143.18,109.16,141.38,107.56,141.38,104.64z"/>
		<path class="st3" d="M149.09,108.23l1.33-0.19v-6.93l-1.33,0.11l-0.1-0.66l2.28-0.59l0.95-0.08v8.15l1.42,0.19l-0.09,0.66
			l-2.19-0.06l-2.18,0.06L149.09,108.23z M150.27,97.74l-0.11-1.06l0.19-0.91l1.37-0.09l0.53,0.09l0.11,1.06l-0.21,0.91l-1.37,0.11
			L150.27,97.74z"/>
		<path class="st3" d="M161.63,107.66c-0.91,0.63-2.11,1.16-3.32,1.5c-2.3,0-4.37-1.63-4.37-4.62c0-2.81,1.69-4.31,4.29-4.88
			c2.51,0,3.36,1.58,3.36,3.57v0.8h-5.79c0.08,2.3,1.18,3.71,3.15,3.71c0.76,0,1.67-0.36,2.37-0.8L161.63,107.66z M155.82,103.23
			l3.8-0.15c0-1.46-0.29-2.47-1.75-2.47C156.77,100.61,155.97,101.6,155.82,103.23z"/>
		<path class="st3" d="M162.2,108.23l1.33-0.19v-6.93l-1.33,0.11l-0.1-0.66l2.28-0.59l0.82-0.06l0.09,1.6l2.81-1.84
			c2.43,0,2.83,0.82,2.83,3.1v5.28l1.44,0.19l-0.09,0.66l-2.18-0.06l-1.82,0.06l-0.09-0.66l0.95-0.19v-5.43
			c0-0.99-0.44-1.42-1.25-1.42c-0.67,0-1.33,0.42-1.98,0.86l-0.57,0.38v5.62l1.04,0.19l-0.09,0.66l-1.8-0.06l-2.19,0.06
			L162.2,108.23z"/>
		<path class="st3" d="M172.33,104.64c0-2.98,2.18-4.41,4.52-4.98c0.87,0,2.05,0.44,2.62,0.95v1.9h-1.41l-0.44-1.54
			c-0.3-0.23-0.59-0.3-1.1-0.3c-1.29,0-2.28,1.44-2.28,3.51c0,2.03,1.1,3.55,2.96,3.55c0.72,0,1.48-0.36,2.15-0.8l0.3,0.72
			c-0.87,0.63-1.84,1.1-3.1,1.5C174.13,109.16,172.33,107.56,172.33,104.64z"/>
		<path class="st3" d="M187.74,107.66c-0.91,0.63-2.11,1.16-3.32,1.5c-2.3,0-4.37-1.63-4.37-4.62c0-2.81,1.69-4.31,4.29-4.88
			c2.51,0,3.36,1.58,3.36,3.57v0.8h-5.79c0.08,2.3,1.18,3.71,3.15,3.71c0.76,0,1.67-0.36,2.38-0.8L187.74,107.66z M181.93,103.23
			l3.8-0.15c0-1.46-0.28-2.47-1.75-2.47C182.87,100.61,182.08,101.6,181.93,103.23z"/>
		<path class="st3" d="M191.82,102.4c0-4.43,2.94-6.59,7.18-7.16c1.98,0,3.72,0.89,4.54,1.48v2.56h-1.04l-0.61-1.77
			c-0.51-0.55-1.6-1.29-3.15-1.29c-2.81,0-4.73,2-4.73,5.72c0,3.08,1.88,6.23,5.21,6.23c1.14,0,1.98-0.63,2.49-1.06l1.03-2.11h1.04
			l-0.49,2.74c-1.03,0.49-3.02,1.25-4.62,1.48C195.13,109.22,191.82,106.82,191.82,102.4z"/>
		<path class="st3" d="M212.04,107.66c-0.91,0.63-2.11,1.16-3.32,1.5c-2.3,0-4.37-1.63-4.37-4.62c0-2.81,1.69-4.31,4.29-4.88
			c2.51,0,3.36,1.58,3.36,3.57v0.8h-5.79c0.08,2.3,1.18,3.71,3.15,3.71c0.76,0,1.67-0.36,2.38-0.8L212.04,107.66z M206.23,103.23
			l3.8-0.15c0-1.46-0.28-2.47-1.75-2.47C207.17,100.61,206.38,101.6,206.23,103.23z"/>
		<path class="st3" d="M212.61,108.23l1.33-0.19v-6.93l-1.33,0.11l-0.09-0.66l2.28-0.59l0.82-0.06l0.1,1.6l2.81-1.84
			c2.43,0,2.83,0.82,2.83,3.1v5.28l1.44,0.19l-0.1,0.66l-2.18-0.06l-1.82,0.06l-0.09-0.66l0.95-0.19v-5.43
			c0-0.99-0.44-1.42-1.25-1.42c-0.67,0-1.33,0.42-1.98,0.86l-0.57,0.38v5.62l1.04,0.19l-0.1,0.66l-1.8-0.06l-2.18,0.06
			L212.61,108.23z"/>
		<path class="st3" d="M224.29,106.6v-5.57h-1.84v-0.32l0.67-0.67h1.24v-1.23l1.23-1.24h0.49v2.6h2.87v0.86h-2.85v5.57
			c0,0.72,0.51,1.14,1.01,1.14c0.44,0,0.82-0.11,1.5-0.46l0.32,0.65l-2.22,1.24C225.11,109.16,224.29,108.3,224.29,106.6z"/>
		<path class="st3" d="M236.68,107.66c-0.91,0.63-2.11,1.16-3.32,1.5c-2.3,0-4.37-1.63-4.37-4.62c0-2.81,1.69-4.31,4.29-4.88
			c2.51,0,3.36,1.58,3.36,3.57v0.8h-5.79c0.08,2.3,1.18,3.71,3.15,3.71c0.76,0,1.67-0.36,2.38-0.8L236.68,107.66z M230.87,103.23
			l3.8-0.15c0-1.46-0.28-2.47-1.75-2.47C231.82,100.61,231.02,101.6,230.87,103.23z"/>
		<path class="st3" d="M237.25,108.23l1.33-0.19v-6.93l-1.33,0.11l-0.09-0.66l2.28-0.59l0.76-0.06l0.04,2.51l2.17-2.66h1.52v1.9
			h-1.41c-0.46,0.09-1.22,0.72-1.75,1.35l-0.38,0.46v4.52l1.94,0.19l-0.09,0.72l-2.75-0.06l-2.13,0.06L237.25,108.23z"/>
		<path class="st3" d="M247.82,106.73c0-0.68,0.25-1.18,0.66-1.75l4.27-1.42v-0.95c0-1.14-0.09-1.82-1.12-1.82
			c-0.51,0-1.14,0.17-1.56,0.34l-0.32,1.44h-1.63v-1.39l3.44-1.52c2.39,0,3,0.61,3,3.02v3.72c0,0.82,0.13,1.12,0.32,1.42h0.95
			l0.08,0.67l-2.45,0.47l-0.59-1.46l-2.26,1.65C248.97,109.16,247.82,108.25,247.82,106.73z M251.96,107.34l0.8-0.55v-2.47
			l-2.75,1.14c-0.29,0.29-0.38,0.67-0.38,1.06c0,0.97,0.55,1.31,1.1,1.31C251.25,107.83,251.71,107.51,251.96,107.34z"/>
		<path class="st3" d="M257.18,106.6v-5.57h-1.84v-0.32l0.67-0.67h1.24v-1.23l1.23-1.24h0.49v2.6h2.87v0.86h-2.85v5.57
			c0,0.72,0.51,1.14,1.01,1.14c0.44,0,0.82-0.11,1.5-0.46l0.32,0.65l-2.22,1.24C258,109.16,257.18,108.3,257.18,106.6z"/>
		<path class="st3" d="M266.72,108.23l2.28-0.25V96.47l-2.85,0.04l-0.87,2.41h-0.74v-3.36l5.45,0.06l5.47-0.06v3.36h-0.74
			l-0.87-2.41l-2.85-0.04v11.51l2.18,0.25l-0.09,0.66l-3.08-0.06l-3.19,0.06L266.72,108.23z"/>
		<path class="st3" d="M276.41,111.44h1.63l1.88-2.87l-0.76,0.23l-3.1-8.02l-1.18-0.19l0.1-0.66l2.18,0.06l1.99-0.06l0.09,0.66
			l-1.25,0.19l2.01,5.57l0.15,1.31l2.26-6.88l-0.87-0.19l0.1-0.66l1.67,0.06l1.58-0.06l0.09,0.66l-1.22,0.19l-2.98,7.77l-2.13,4.79
			h-2.26V111.44z"/>
		<path class="st3" d="M284.62,108.23l1.33-0.19V96.6l-1.33,0.04l-0.09-0.67l2.28-0.59l0.95-0.08v12.73l1.42,0.19l-0.1,0.66
			l-2.18-0.06l-2.18,0.06L284.62,108.23z"/>
		<path class="st3" d="M296.68,107.66c-0.91,0.63-2.11,1.16-3.32,1.5c-2.3,0-4.37-1.63-4.37-4.62c0-2.81,1.69-4.31,4.29-4.88
			c2.51,0,3.36,1.58,3.36,3.57v0.8h-5.79c0.08,2.3,1.18,3.71,3.15,3.71c0.76,0,1.67-0.36,2.38-0.8L296.68,107.66z M290.87,103.23
			l3.8-0.15c0-1.46-0.28-2.47-1.75-2.47C291.82,100.61,291.02,101.6,290.87,103.23z"/>
		<path class="st3" d="M297.25,108.23l1.33-0.19v-6.93l-1.33,0.11l-0.09-0.66l2.28-0.59l0.76-0.06l0.04,2.51l2.17-2.66h1.52v1.9
			h-1.41c-0.46,0.09-1.22,0.72-1.75,1.35l-0.38,0.46v4.52l1.94,0.19l-0.09,0.72l-2.75-0.06l-2.13,0.06L297.25,108.23z"/>
	</g>
</g>
</svg>
